<svg width="24" height="24" viewBox="0 0 24 24" fill="none" xmlns="http://www.w3.org/2000/svg">
<path d="M21.5083 3.4876L20.5145 2.49385C20.477 2.45635 20.4302 2.43994 20.3809 2.43994C20.3317 2.43994 20.2848 2.45869 20.2473 2.49385L18.4637 4.27744C17.6884 3.7521 16.773 3.472 15.8364 3.47354C14.6364 3.47354 13.4364 3.93057 12.52 4.84697L10.1317 7.23525C10.0968 7.27049 10.0772 7.31808 10.0772 7.36768C10.0772 7.41727 10.0968 7.46486 10.1317 7.5001L16.4997 13.8681C16.5372 13.9056 16.5841 13.922 16.6333 13.922C16.6802 13.922 16.7294 13.9032 16.7669 13.8681L19.1552 11.4798C20.77 9.8626 20.9598 7.36182 19.7247 5.53838L21.5083 3.75479C21.5809 3.67979 21.5809 3.56025 21.5083 3.4876V3.4876ZM13.5677 12.8134C13.5324 12.7785 13.4848 12.7589 13.4352 12.7589C13.3856 12.7589 13.338 12.7785 13.3028 12.8134L11.7419 14.3743L9.62546 12.2579L11.1887 10.6946C11.2614 10.622 11.2614 10.5024 11.1887 10.4298L10.3356 9.57666C10.3004 9.54177 10.2528 9.52219 10.2032 9.52219C10.1536 9.52219 10.106 9.54177 10.0708 9.57666L8.5075 11.1399L7.49968 10.1321C7.48219 10.1146 7.46134 10.1008 7.43838 10.0916C7.41543 10.0823 7.39084 10.0778 7.36609 10.0782C7.31921 10.0782 7.27 10.097 7.2325 10.1321L4.84656 12.5204C3.23171 14.1353 3.04187 16.6384 4.27703 18.4618L2.49343 20.2454C2.45854 20.2806 2.43896 20.3282 2.43896 20.3778C2.43896 20.4274 2.45854 20.475 2.49343 20.5103L3.48718 21.504C3.52468 21.5415 3.57156 21.5579 3.62078 21.5579C3.67 21.5579 3.71687 21.5392 3.75437 21.504L5.53796 19.7204C6.32781 20.2571 7.24656 20.5243 8.16531 20.5243C9.36531 20.5243 10.5653 20.0673 11.4817 19.1509L13.87 16.7626C13.9427 16.6899 13.9427 16.5704 13.87 16.4978L12.8622 15.4899L14.4255 13.9267C14.4981 13.854 14.4981 13.7345 14.4255 13.6618L13.5677 12.8134V12.8134Z" fill="#7C859B"/>
</svg>
