<svg width="24" height="24" viewBox="0 0 24 24" fill="none" xmlns="http://www.w3.org/2000/svg">
<path d="M20.2801 5.73482C20.2731 5.72778 18.8481 7.13638 16.0122 9.96763L14.0223 7.97779L18.2622 3.73794C16.0309 2.39497 13.1645 2.7395 11.3059 4.5981C10.5955 5.30815 10.0842 6.19253 9.82338 7.16253C9.56257 8.13253 9.5614 9.15406 9.81997 10.1247L9.86216 10.2817L3.21763 16.9239C3.07231 17.0692 3.07231 17.3083 3.21763 17.4536L6.53169 20.7676C6.677 20.9129 6.91606 20.9129 7.06138 20.7676L13.7012 14.1278L13.8583 14.17C15.82 14.6926 17.927 14.1489 19.3895 12.6864C21.2504 10.8278 21.595 7.96138 20.2801 5.73482V5.73482Z" fill="#7C859B"/>
</svg>
